<?xml version="1.0" encoding="utf-8"?>
<!-- Generator: Adobe Illustrator 26.0.3, SVG Export Plug-In . SVG Version: 6.00 Build 0)  -->
<svg version="1.0" id="Layer_1" xmlns="http://www.w3.org/2000/svg" xmlns:xlink="http://www.w3.org/1999/xlink" x="0px" y="0px"
	 viewBox="20 60 200 44" style="enable-background:new 20 60 200 44;" xml:space="preserve">
<style type="text/css">
	.st0{fill:#64E792;}
	.st1{fill:#10C030;}
	.st2{fill:#27D253;}
	.st3{fill:#28D254;}
	.st4{fill:#FCFEFD;}
	.st5{fill:#023927;}
</style>
<path class="st0" d="M46.9,98.4c-0.5,0.5-1,0.9-1.6,1.2c-1.6,1-3.4,1.7-5.3,2c-2,0.4-4.1,0.4-6.2,0.1c-2.1-0.3-4.2-1-6-2.1
	c-1.2-0.7-2.2-1.6-2.9-2.7c-1.5-2.2-1.4-5.1,0.2-7.2c0.7-1,1.6-1.8,2.7-2.4c0.2-0.1,0.2-0.2,0.1-0.4c-0.9-1.9-1.3-3.9-1.3-6
	c0-1.5,0.4-3,1.3-4.2c0.9-1.2,2.3-2,3.9-2.2c1.3-0.1,2.6,0,3.9,0.5v0.1c0,0,0,0.1,0,0.1c-0.1,0.8-0.2,1.5-0.2,2.3
	c0,0.3,0,0.6-0.1,0.9c-0.1,0-0.2,0-0.3-0.1c-0.8-0.3-1.7-0.5-2.6-0.5c-1,0-1.8,0.6-2.2,1.5c-0.2,0.5-0.3,0.9-0.3,1.4
	c0,1.7,0.4,3.4,1.1,5c0.1,0.2,0.2,0.2,0.3,0.1c1.3-0.4,2.6-0.6,3.9-0.7c0.2,0,0.2-0.1,0.2-0.2c-0.1-0.5-0.1-0.9-0.1-1.4
	c-0.1-1.7-0.1-3.4,0-5.1c0.8,0.3,1.6,0.8,2.3,1.3l1,0.7v0.1c0,1.6,0.1,3.1,0.2,4.7c-0.6,0-1.2-0.1-1.7-0.2c-0.6,0-0.9,0-1.3,0
	c-0.2,0-0.4,0-0.3,0.3l0.1,1.1c0.1,0.7,0.2,1.4,0.3,2c-1,0.1-2.1,0.2-3.1,0.5c1.3,1.9,2.9,3.6,4.7,5c0,0,0-0.1,0-0.1
	c0-0.1-0.1-0.2-0.1-0.3c-0.6-1.6-1.1-3.2-1.4-4.9c0.7,0,1.5,0,2.2,0.1c0.4,0.1,0.9,0.1,1.3,0.2c0,0,0,0,0,0.1c0.4,1.7,1,3.4,1.7,5
	c0.4,0.9,1,1.7,1.8,2.2c-0.1,0.1-0.2,0.1-0.3,0.1c-1.2-0.1-2.4-0.5-3.4-1.1c-0.5-0.3-1-0.6-1.5-0.9l0,0l0,0c0,0,0,0.1,0,0.1
	c0.4,0.9,0.9,1.8,1.5,2.6c0.3,0.4,0.7,0.8,1.1,1.2c-0.6,0.2-1.2,0.3-1.8,0.4c0.9,0.4,1.8,0.7,2.8,0.9c0.7,0.2,1.3,0.2,2,0.1
	c1.2,0,2.3-0.3,3.3-1C46.7,98.5,46.8,98.4,46.9,98.4z M29.7,90.3c-0.6,0.4-1.2,0.8-1.7,1.4c-0.9,1-1,2.4-0.2,3.5
	c0.6,0.8,1.3,1.5,2.2,1.9c2.2,1.1,4.7,1.6,7.1,1.5c0.5,0,0.9-0.1,1.4-0.1c-0.5-0.3-1.1-0.6-1.6-1c-2-1.3-3.9-2.9-5.4-4.8
	C30.9,91.9,30.3,91.1,29.7,90.3c0.2-0.1,0.3-0.2,0.4-0.3c0.8-0.4,1.7-0.8,2.6-1c0.2-0.1,0.2-0.1,0.1-0.2c-0.6-0.9-1.1-1.7-1.5-2.7
	c0-0.1-0.2-0.2-0.3-0.1c0,0,0,0-0.1,0c-0.9,0.3-1.8,0.7-2.6,1.1c-0.1,0.1-0.2,0.2-0.1,0.3s0.1,0.2,0.1,0.3
	C28.8,88.6,29.3,89.5,29.7,90.3z"/>
<path class="st0" d="M39.5,88.9C39.5,88.9,39.5,88.9,39.5,88.9c0-0.1,0-0.1,0-0.2c-0.2-0.7-0.3-1.4-0.4-2.2
	c-0.1-0.4-0.1-0.8-0.1-1.2c1.2,0.1,2.4,0.4,3.5,0.8c0.4,0.2,0.8,0.3,1.2,0.4l0,0l0,0c0-0.1,0-0.1-0.1-0.2c-0.7-1.2-1.6-2.4-2.5-3.4
	c-0.7-0.9-1.5-1.6-2.4-2.3v-0.1c0-1,0-2,0.1-3c0-0.3,0-0.6,0.1-0.9c0.1,0,0.2,0.1,0.3,0.2c1.7,1.1,3.2,2.5,4.5,4
	c1.9,2.1,3.4,4.6,4.4,7.3c0,0.1,0,0.2,0.1,0.2c0.4-1.9,0.6-3.8,0.7-5.8c0.1-3.2-0.1-6.3-0.7-9.4c-0.4-1.9-1.1-3.8-2-5.5
	c-0.4-0.7-0.8-1.3-1.5-1.8c-0.6-0.5-1.4-0.5-2,0c-0.6,0.5-1.1,1.1-1.4,1.7c-0.7,1.3-1.3,2.7-1.6,4.1c-0.5,1.6-0.8,3.3-0.9,5
	c-0.6-0.4-1.3-0.7-1.9-1c-0.4-0.2-0.8-0.4-1.3-0.5v-0.1c0.2-1.6,0.6-3.1,1-4.7c0.5-2,1.4-3.8,2.5-5.5c0.6-1,1.5-1.8,2.5-2.3
	c1.8-0.9,3.9-0.6,5.3,0.7c1.3,1.1,2.3,2.5,2.9,4.1c0.9,2.2,1.6,4.4,1.9,6.8c0.4,2.4,0.6,4.8,0.5,7.2c0,1.7-0.2,3.3-0.4,5
	c-0.3,2.3-0.8,4.5-1.6,6.7c-0.5,1.4-1.2,2.6-2,3.8c-0.1,0.1-0.1,0.2-0.2,0.2s0.1-0.2,0.1-0.3c0.5-0.9,0.8-1.9,0.9-3
	c0-0.7-0.2-1.3-0.2-1.9c0-0.4-0.1-0.8-0.2-1.2c-0.1-0.7-0.3-1.4-0.6-2c-0.1,0.3-0.2,0.7-0.3,1c0,0.1,0,0.2-0.1,0.2s-0.1-0.1-0.2-0.1
	c-0.3-0.4-0.6-0.7-0.9-1c-0.9-0.8-1.8-1.4-2.9-1.9c0,0-0.1-0.1-0.2,0s0,0.1,0,0.2s0.2,0.4,0.3,0.6c-0.1,0.1,0,0.2,0.1,0.2
	c0.2,0.4,0.4,0.8,0.5,1.2c0.4,0.9,0.6,1.8,0.8,2.8c0,0.1,0.1,0.2-0.1,0.2c-0.2-0.2-0.4-0.4-0.6-0.6C44,90.6,43,90.1,42,89.7
	C41.2,89.3,40.4,89.1,39.5,88.9z"/>
<path class="st1" d="M48.9,91.8c0,0.6,0.2,1.3,0.2,1.9c0,1.1-0.3,2.1-0.9,3c-0.1,0.1-0.1,0.2-0.1,0.3l0,0C48,97,48,97.1,48,97.2
	c-0.3,0.4-0.7,0.9-1.1,1.2c-0.1,0-0.2,0-0.2,0.1c-1,0.7-2.1,1-3.3,1c0-0.1-0.1-0.1-0.2-0.1c-0.9-0.1-1.8-0.5-2.5-1.1
	c0,0-0.2-0.1-0.1-0.2s0.1-0.1,0.2-0.1c0.9-0.2,1.8-0.6,2.6-1.1c0.4-0.2,0.8-0.5,1.2-0.9c0,0,0.1-0.1,0.1-0.1c0-0.1,0.1-0.1,0.1-0.1
	c0.1,0,0.2-0.1,0.2-0.1c0.3-0.3,0.6-0.7,0.9-1.1c0.8-1.2,1.4-2.6,1.8-4c0-0.3,0.1-0.5,0.2-0.8c0.4,0.5,0.7,1.1,0.9,1.7
	C48.8,91.6,48.8,91.8,48.9,91.8z"/>
<path class="st2" d="M35.4,78.5C35.4,78.5,35.4,78.5,35.4,78.5c0.1-0.4,0.1-0.7,0.1-1c0.1-0.8,0.1-1.5,0.2-2.3c0,0,0-0.1,0-0.1
	c0.5,0.1,0.9,0.2,1.3,0.5c0.7,0.3,1.3,0.6,1.9,1l0,0c-0.1,0.3-0.2,0.6-0.1,0.9c-0.1,1-0.1,2-0.1,3l-1-0.7
	C37,79.2,36.2,78.8,35.4,78.5z"/>
<path class="st2" d="M38.9,85.3L38.9,85.3c0,0.4,0.1,0.8,0.1,1.2c0.2,0.7,0.2,1.5,0.4,2.2c0,0,0,0.1,0,0.1c-0.4,0-0.9-0.1-1.3-0.2
	c-0.7-0.1-1.4-0.1-2.2-0.1l0,0c-0.1-0.7-0.2-1.3-0.3-2l-0.2-1.1c0-0.3,0.2-0.3,0.3-0.3c0.4,0,0.9,0,1.3,0
	C37.6,85.2,38.4,85.3,38.9,85.3z"/>
<path class="st2" d="M29.8,90.3L29.8,90.3c-0.5-0.8-1-1.6-1.4-2.5c0-0.1-0.1-0.2-0.1-0.3s0-0.2,0.1-0.3c0.8-0.5,1.7-0.9,2.6-1.2
	c0.1-0.1,0.2,0,0.3,0.1c0,0,0,0,0,0c0.4,0.9,1,1.8,1.5,2.7c0.1,0.1,0.1,0.2-0.1,0.2c-0.9,0.2-1.8,0.6-2.6,1
	C30,90.1,29.9,90.2,29.8,90.3z"/>
<path class="st2" d="M43.1,96.1c0.4,0.1,0.9,0.1,1.3-0.1h0.1c-0.3,0.4-0.7,0.7-1.2,0.9c-0.8,0.5-1.7,0.9-2.6,1.1
	c-0.1,0-0.2,0-0.2,0.1c0,0.1,0.1,0.1,0.1,0.2c0.7,0.6,1.6,1,2.5,1.1c0.1,0,0.1,0,0.2,0.1c-0.7,0.1-1.3,0-2-0.1
	c-1-0.2-1.9-0.5-2.8-0.9c0.6-0.1,1.2-0.2,1.8-0.4c-0.4-0.4-0.8-0.8-1.1-1.2c-0.6-0.8-1.1-1.7-1.5-2.6c0,0,0-0.1,0-0.1l0,0
	c0.5,0.3,1,0.6,1.5,0.9c1,0.6,2.2,1,3.4,1.1C42.9,96.2,43,96.2,43.1,96.1z"/>
<path class="st3" d="M44.7,95.8c0.3-0.3,0.6-0.6,0.8-1c0.6-0.9,0.5-2,0-2.8c0.1,0,0.1-0.2,0.1-0.2c-0.2-1-0.4-1.9-0.8-2.8
	c-0.1-0.4-0.3-0.8-0.5-1.2c0-0.1-0.1-0.2-0.1-0.2c-0.1-0.2-0.2-0.4-0.3-0.6s-0.1-0.1,0-0.2s0.1,0,0.2,0c1,0.5,2,1.1,2.8,1.9
	c0.3,0.3,0.6,0.6,0.9,1c0,0.1,0.1,0.2,0.2,0.1s0.1-0.1,0.1-0.2c0.1-0.3,0.2-0.7,0.3-1c0.3,0.6,0.4,1.3,0.6,2
	c0.1,0.4,0.2,0.8,0.2,1.2c-0.1,0-0.1-0.2-0.2-0.2c-0.2-0.6-0.5-1.1-0.9-1.7c-0.1,0.2-0.2,0.5-0.2,0.8c-0.4,1.4-1,2.8-1.8,4
	c-0.3,0.4-0.6,0.7-0.9,1.1C44.9,95.8,44.8,95.8,44.7,95.8z"/>
<path class="st0" d="M44.1,87.5c0.1,0.1,0.1,0.1,0.1,0.2C44.1,87.7,44,87.6,44.1,87.5z"/>
<path class="st3" d="M44.5,96h-0.1c0-0.1,0.1-0.1,0.2-0.1C44.6,95.9,44.6,96,44.5,96z"/>
<polygon class="st5" points="64.6,95.8 64.6,70.2 69.2,70.2 69.2,84.3 69.8,84.3 75.8,77.6 81.9,77.6 73.5,86.4 82.2,95.8 
	76.2,95.8 69.8,88.6 69.2,88.6 69.2,95.8 "/>
<path class="st5" d="M91.1,96.1c-1.3,0-2.6-0.3-3.7-1c-1.1-0.6-1.9-1.6-2.5-2.7c-0.6-1.2-0.9-2.6-0.9-4V77.6h4.6v10.5
	c-0.1,1.1,0.3,2.2,1,3.1c0.8,0.7,1.8,1.1,2.9,1c1.3,0.1,2.5-0.5,3.3-1.4c0.8-1.1,1.3-2.5,1.2-3.9v-9.2h4.6v18.2h-4.6v-2.4h-0.7
	c-0.4,0.7-1,1.3-1.7,1.8C93.7,95.9,92.4,96.2,91.1,96.1z"/>
<path class="st5" d="M114.1,92.3c1.3,0,2.6-0.5,3.6-1.4c1-1.1,1.5-2.5,1.4-4v-0.4c0.1-1.5-0.4-2.9-1.4-4c-1-0.9-2.3-1.4-3.6-1.4
	c-1.3,0-2.6,0.5-3.5,1.4c-1,1.1-1.5,2.5-1.4,4v0.4c-0.1,1.5,0.4,2.9,1.4,4C111.5,91.8,112.8,92.3,114.1,92.3z M115.5,96.3
	c-1.3,0.1-2.6-0.2-3.8-0.8c-0.8-0.5-1.5-1.1-2-1.9H109v2.2h-4.5V70.2h4.6v9.6h0.7c0.7-1.1,1.7-1.8,2.9-2.2c0.9-0.3,1.8-0.4,2.8-0.4
	c2.9,0,5.7,1.6,7,4.3c0.8,1.5,1.2,3.3,1.1,5V87c0,1.7-0.3,3.5-1.1,5c-0.7,1.3-1.7,2.4-3,3.2C118.3,95.9,116.9,96.3,115.5,96.3
	L115.5,96.3z"/>
<path class="st5" d="M130,84.6h8.5c-0.1-1-0.5-1.9-1.3-2.5c-0.8-0.7-1.9-1-2.9-1c-1.1,0-2.2,0.3-3,1C130.6,82.8,130.2,83.7,130,84.6
	z M134.5,96.3c-1.7,0-3.3-0.4-4.8-1.1c-1.4-0.8-2.5-1.9-3.2-3.3c-0.8-1.5-1.2-3.3-1.1-5v-0.4c0-1.7,0.3-3.5,1.1-5
	c0.7-1.4,1.8-2.5,3.2-3.3c1.5-0.8,3.1-1.2,4.8-1.1c1.6,0,3.2,0.4,4.7,1.2c1.3,0.8,2.4,1.9,3.1,3.3c0.8,1.5,1.1,3.2,1.1,4.9V88h-13.2
	c0,1.1,0.5,2.2,1.4,3c0.9,0.8,2,1.2,3.2,1.2c1,0.1,2-0.2,2.9-0.8c0.6-0.5,1.1-1.2,1.4-1.9l3.8,2c-0.4,0.7-0.9,1.4-1.5,2.1
	c-0.7,0.8-1.6,1.4-2.6,1.9C137.3,96.1,135.9,96.4,134.5,96.3z"/>
<path class="st5" d="M154.4,96.3c-1.7,0-3.3-0.4-4.8-1.1c-1.4-0.7-2.6-1.8-3.4-3.2c-0.9-1.5-1.3-3.3-1.2-5v-0.5c0-1.7,0.4-3.5,1.2-5
	c0.8-1.4,2-2.5,3.4-3.2c1.5-0.7,3.1-1.1,4.8-1.1c1.5,0,3.1,0.3,4.5,0.9c1.2,0.6,2.2,1.4,3,2.5c0.8,1.1,1.3,2.3,1.5,3.6l-4.5,0.9
	c-0.1-0.7-0.3-1.4-0.7-2c-0.3-0.6-0.8-1.1-1.4-1.4c-0.7-0.4-1.5-0.5-2.3-0.5c-0.9,0-1.7,0.2-2.5,0.6c-0.8,0.4-1.4,1-1.8,1.8
	c-0.4,0.9-0.7,1.9-0.6,2.9V87c0,1,0.2,2,0.6,2.9c0.4,0.8,1,1.4,1.8,1.8c0.8,0.4,1.6,0.6,2.5,0.6c1.2,0.1,2.3-0.3,3.2-1.1
	c0.7-0.8,1.2-1.8,1.4-2.8l4.5,1c-0.3,1.3-0.9,2.5-1.6,3.6c-0.8,1.1-1.8,1.9-3,2.5C157.5,96.1,155.9,96.4,154.4,96.3z"/>
<path class="st5" d="M174.5,92.2c1.3,0,2.6-0.5,3.5-1.4c1-1.1,1.5-2.5,1.4-3.9v-0.4c0.1-1.4-0.4-2.9-1.4-3.9
	c-0.9-0.9-2.2-1.4-3.6-1.4c-1.3,0-2.6,0.5-3.5,1.4c-1,1.1-1.5,2.5-1.4,3.9v0.4c-0.1,1.4,0.4,2.9,1.4,3.9
	C171.9,91.8,173.2,92.3,174.5,92.2z M174.5,96.3c-1.7,0-3.4-0.3-4.9-1.1c-1.4-0.7-2.6-1.8-3.4-3.2c-0.9-1.5-1.3-3.3-1.2-5v-0.6
	c0-1.7,0.4-3.5,1.2-5c0.8-1.4,2-2.5,3.4-3.2c1.5-0.7,3.2-1.1,4.9-1.1c1.7,0,3.4,0.3,4.9,1.1c1.4,0.7,2.6,1.8,3.4,3.2
	c0.9,1.5,1.3,3.3,1.2,5V87c0,1.7-0.4,3.5-1.2,5c-0.8,1.4-2,2.5-3.4,3.2C177.9,96,176.2,96.4,174.5,96.3z"/>
<path class="st5" d="M193.6,96.3c-2,0.1-4.1-0.4-5.8-1.5c-1.5-1-2.5-2.6-2.7-4.4l4.3-1.1c0.1,0.7,0.4,1.4,0.9,2
	c0.4,0.5,0.9,0.8,1.5,1c0.6,0.2,1.3,0.3,2,0.3c0.8,0.1,1.7-0.1,2.4-0.6c0.5-0.3,0.8-0.8,0.8-1.4c0-0.5-0.3-1-0.7-1.3
	c-0.7-0.4-1.5-0.6-2.3-0.8l-1-0.2c-1.2-0.2-2.4-0.5-3.5-1c-1-0.4-1.8-1-2.5-1.8c-0.7-0.8-1-1.9-1-2.9c-0.1-1.6,0.7-3.2,2-4.2
	c1.5-1,3.3-1.5,5.2-1.4c1.8-0.1,3.5,0.4,5,1.3c1.3,0.8,2.2,2.1,2.6,3.5l-4.3,1.3c-0.1-0.8-0.5-1.5-1.2-2c-0.7-0.4-1.4-0.6-2.2-0.6
	c-0.7,0-1.4,0.1-2,0.4c-0.4,0.3-0.7,0.7-0.7,1.3c0,0.5,0.2,1,0.7,1.3c0.6,0.3,1.3,0.5,2,0.6l1,0.2c1.3,0.2,2.5,0.6,3.7,1
	c1,0.3,1.9,0.9,2.6,1.7c0.7,0.8,1.1,1.9,1,3c0.1,1.7-0.7,3.4-2.1,4.4C197.6,95.9,195.6,96.4,193.6,96.3z"/>
<path class="st5" d="M210.4,95.8c-1.1,0-2.1-0.4-2.9-1.1c-0.8-0.8-1.2-1.9-1.1-3V81.5h-4.5v-3.8h4.5V72h4.6v5.7h5v3.8h-5v9.5
	c0,0.7,0.3,1.1,1,1.1h4v3.8L210.4,95.8L210.4,95.8z"/>
</svg>
