<svg xmlns="http://www.w3.org/2000/svg" width="44" height="42" viewBox="0 0 44 42" aria-hidden="true" focusable="false">
  <title>Ceph</title>
  <g fill="#f0424d">
    <path d="M35 38c-1.4-.8-2.3-1.7-2.5-2.7s.2-2 1.3-3.3A16.2 16.2 0 0021.6 5.2h-.1A16.2 16.2 0 009.2 32c1.1 1.3 1.5 2.3 1.4 3.2S9.5 37.2 8 38a22.8 22.8 0 01-5.7-7.2A21.3 21.3 0 010 21.4 21.4 21.4 0 0121.5 0h.1A21.4 21.4 0 0143 21.4a21.6 21.6 0 01-.6 4.9 21 21 0 01-1.6 4.5 22.7 22.7 0 01-5.7 7.2" />
    <path d="M27.2 42a8 8 0 01-2-2 8.7 8.7 0 01-1.6-5.3 11.8 11.8 0 01.9-4.2 12 12 0 012.3-3.7l.2-.2a10.3 10.3 0 001-1.4 7 7 0 001-2 7.5 7.5 0 00-6.3-9.2 7.3 7.3 0 00-1.1 0h-.1a7.4 7.4 0 00-4 1 7.5 7.5 0 00-2.2 2 7.5 7.5 0 00-1.2 6.2 7.2 7.2 0 00.8 2 9.7 9.7 0 001.1 1.4l.2.3a11.9 11.9 0 012.3 3.6 11.8 11.8 0 011 4.2 8.8 8.8 0 01-1.8 5.4 8 8 0 01-1.9 1.9l-1.2-.4A21.3 21.3 0 0111 40a6 6 0 003.2-5.3 6.4 6.4 0 00-1.7-4.2l-.3-.4-.9-1a12.8 12.8 0 01-.2-15 13 13 0 013.7-3.5 12.8 12.8 0 015-1.8 13.3 13.3 0 011.7-.2h.2a13.4 13.4 0 011.8.2 12.8 12.8 0 014.9 1.8A13 13 0 0132 14a12.7 12.7 0 01-.2 15l-.9 1-.3.4a6.5 6.5 0 00-1.7 4.3 6 6 0 003.1 5.4 21.4 21.4 0 01-3.6 1.5l-1.2.4" />
    <path d="M21.5 25.8a4.2 4.2 0 114.2-4.2 4.2 4.2 0 01-4.2 4.2" />
  </g>
</svg>
