<svg version="1.1" viewBox="0 0 100 115.2" xmlns="http://www.w3.org/2000/svg">
	<path d="M98.96,57.6c0,31.81-25.79,57.6-57.6,57.6-12.85,0-24.72-4.21-34.3-11.32,1.64,.92,3.33,1.75,5.07,2.5,6.59,2.84,13.69,4.31,20.87,4.31,13.37,0,26.24-5.06,36.04-14.14,9.8-9.08,15.82-21.53,16.84-34.86,.14-1.26,.22-2.52,.24-3.78,0-1.61-.13-3.47-.3-5.17-.01-.16-.02-.33-.03-.49,0-.19-.01-.38-.03-.56l-.05,.05c-.24-2.21-.49-3.91-.49-3.91H43.43l-3.25,6.08-7.46,14.1h31.58c-1.17,3.49-2.92,6.77-5.17,9.69-3.07,4.02-7.02,7.27-11.56,9.51-4.53,2.24-9.52,3.41-14.58,3.4-3.87,0-7.71-.7-11.34-2.04-6.35-2.32-11.83-6.53-15.7-12.07C2.08,70.95,0,64.36,0,57.6c0-4.33,.85-8.63,2.51-12.63,1.66-4,4.09-7.64,7.15-10.71,3.06-3.06,6.7-5.5,10.71-7.15s8.3-2.51,12.63-2.51c6.99-.01,13.81,2.21,19.45,6.34l4.33-8.11,5.16-9.75c-8.61-5.61-18.67-8.59-28.95-8.58-9.09,0-17.94,2.34-25.77,6.68C16.79,4.16,28.59,0,41.36,0c31.81,0,57.6,25.79,57.6,57.6Z" fill="#ff4c00"/>
</svg>