<?xml version="1.0" encoding="UTF-8"?>
<svg version="1.1" xmlns="http://www.w3.org/2000/svg" width="625" height="625">
<path d="M0 0 C6.99557502 5.10006742 13.36625961 12.03706071 15.00146484 20.76831055 C16.48573576 24.6721939 17.64378792 25.63631484 21.35855103 27.39227295 C22.05233856 27.68950256 22.7461261 27.98673218 23.4609375 28.29296875 C24.19218842 28.6306427 24.92343933 28.96831665 25.67684937 29.31622314 C28.10287093 30.43053976 30.54307447 31.50946554 32.984375 32.58984375 C34.70305274 33.37295757 36.42048225 34.15881606 38.13671875 34.94726562 C41.73155824 36.59657171 45.33127924 38.23448119 48.93457031 39.86523438 C56.63098607 43.36088878 64.25388097 47.00954472 71.87988281 50.6555481 C76.0441907 52.64457301 80.21373591 54.62255792 84.3828125 56.6015625 C86.04786534 57.39238637 87.71290442 58.18323918 89.37792969 58.97412109 C91.03840276 59.76271363 92.69888452 60.55128787 94.359375 61.33984375 C95.59161804 61.92502777 95.59161804 61.92502777 96.84875488 62.52203369 C99.32355792 63.69717295 101.79846724 64.87208797 104.2734375 66.046875 C105.08291336 66.43114655 105.89238922 66.81541809 106.72639465 67.21133423 C110.71591953 69.10443022 114.70688461 70.99438323 118.70092773 72.87792969 C120.24464628 73.60608296 121.78834762 74.33427272 123.33203125 75.0625 C124.08473801 75.4175058 124.83744476 75.7725116 125.61296082 76.13827515 C130.10764115 78.26240923 134.58756753 80.41449898 139.05688477 82.59147644 C141.85091321 83.95014456 144.65118159 85.29560427 147.45257568 86.63900757 C148.75097977 87.26591561 150.04637073 87.89910845 151.33843994 88.53897095 C153.09931382 89.41045912 154.87167974 90.25861222 156.64453125 91.10546875 C157.63332275 91.58790039 158.62211426 92.07033203 159.64086914 92.56738281 C163.00573914 93.52350753 164.32070313 92.94922407 167.359375 91.33984375 C168.05160156 90.99824219 168.74382812 90.65664062 169.45703125 90.3046875 C170.77004181 89.61816309 172.08254011 88.9306581 173.39453125 88.2421875 C181.74376126 84.40784926 194.74134319 85.03311029 203.359375 87.83984375 C213.55652798 92.32846784 220.30965644 99.52094656 225.359375 109.33984375 C226.734375 112.96484375 226.734375 112.96484375 227.359375 116.33984375 C227.49085938 116.98953125 227.62234375 117.63921875 227.7578125 118.30859375 C229.45270294 128.70392176 227.28694751 139.61803797 221.359375 148.33984375 C220.77349389 148.84030999 220.18761278 149.34077623 219.5839777 149.85640812 C217.33130625 151.90358691 215.81284169 153.65475552 214.359375 156.33984375 C214.16964253 161.0846521 215.36911644 165.38703858 216.56225586 169.95678711 C216.88671711 171.32180192 217.20746291 172.68770441 217.52478027 174.05439758 C218.39487801 177.75432399 219.31626246 181.43972155 220.24741435 185.1246841 C221.21506824 188.99158511 222.13465981 192.86988053 223.0594635 196.74720764 C224.81931801 204.09348579 226.6217038 211.42862375 228.43978363 218.76068264 C230.49885824 227.07313481 232.5114755 235.39659567 234.51965892 243.72146404 C236.97019336 253.8784954 239.42773465 264.03373513 241.92185974 274.18016052 C242.09855827 274.89905051 242.27525681 275.6179405 242.45730984 276.35861504 C243.28258083 279.71431003 244.10957842 283.06956406 244.93855286 286.42434692 C245.22908539 287.60313919 245.51961792 288.78193146 245.81895447 289.9964447 C246.08887648 291.08781172 246.35879848 292.17917873 246.63689995 293.30361748 C247.2909861 296.05243706 247.86575457 298.8054851 248.42262268 301.57521057 C248.98833499 305.42146862 248.98833499 305.42146862 251.71484375 307.3203125 C253.11669922 307.91779297 253.11669922 307.91779297 254.546875 308.52734375 C265.10793098 313.59444753 271.52159257 320.85841735 275.734375 331.96484375 C275.940625 333.07859375 276.146875 334.19234375 276.359375 335.33984375 C276.55660156 336.314375 276.55660156 336.314375 276.7578125 337.30859375 C278.65304416 348.93268126 275.47007706 359.61108266 269.0859375 369.265625 C263.54580669 376.48700939 255.17860874 381.4263258 246.359375 383.33984375 C243.77545119 383.31060181 241.19173889 383.24675824 238.609375 383.15234375 C233.79190989 383.2527654 231.11408301 383.74026487 227.26171875 386.80078125 C224.81780428 389.51949096 222.71044446 392.46321715 220.64941406 395.47851562 C218.54281783 398.51801026 216.22183845 401.38328777 213.921875 404.27734375 C213.47030029 404.85766357 213.01872559 405.4379834 212.5534668 406.03588867 C208.80020112 410.85467474 204.84557037 415.47595794 200.84228516 420.08740234 C196.8900014 424.66326013 193.14544372 429.37460462 189.44018555 434.15136719 C185.83680897 438.77917587 182.08621433 443.26289801 178.27758789 447.72241211 C174.8738463 451.71290032 171.57556907 455.7740105 168.31640625 459.8828125 C164.71232271 464.40769982 161.02822731 468.86745672 157.359375 473.33984375 C155.03008392 476.18971049 152.70090768 479.03945345 150.3828125 481.8984375 C149.17315215 483.35796978 147.93642022 484.79659628 146.6484375 486.1875 C143.99872948 488.98539457 143.99872948 488.98539457 143.359375 492.65234375 C143.689375 493.53921875 144.019375 494.42609375 144.359375 495.33984375 C148.51454239 506.87946622 149.70582207 517.29437215 145.3203125 529.1484375 C140.12492212 540.15931324 132.23531925 547.30000562 120.796875 551.71484375 C107.96776209 554.04740973 96.66922826 553.4962509 85.359375 546.33984375 C78.9965303 541.61415435 78.9965303 541.61415435 77.359375 538.33984375 C53.95943513 538.22312157 30.5595388 538.13491004 7.15936661 538.08078289 C-3.70537793 538.05498441 -14.56994176 538.01980241 -25.43457031 537.96264648 C-34.90249444 537.91286192 -44.37028771 537.8805647 -53.83833909 537.86940128 C-58.85320369 537.86287414 -63.86769388 537.84749938 -68.88243866 537.81119347 C-73.60041036 537.77731216 -78.31785265 537.76677484 -83.03593445 537.77430534 C-84.76939519 537.77292727 -86.50287323 537.76294786 -88.23622894 537.74381638 C-90.60017742 537.71899986 -92.96211757 537.72489499 -95.32611084 537.73857117 C-96.35918983 537.71672486 -96.35918983 537.71672486 -97.4131391 537.69443721 C-99.58194691 537.67465716 -99.58194691 537.67465716 -102.640625 538.33984375 C-104.98814221 540.66526643 -104.98814221 540.66526643 -106.640625 543.33984375 C-116.01129831 550.50058798 -125.78177658 553.97178274 -137.59765625 553.12890625 C-147.55453948 551.77405436 -156.84114156 547.95334986 -163.640625 540.33984375 C-169.81696677 532.00808475 -173.45633402 523.79416828 -173.640625 513.33984375 C-173.45886719 512.49421875 -173.27710938 511.64859375 -173.08984375 510.77734375 C-172.04469587 505.88576728 -171.94679584 503.41095059 -174.73828125 499.1015625 C-177.09796984 496.2219785 -179.64217942 493.52293829 -182.22314453 490.84179688 C-184.11784076 488.83418902 -185.81818459 486.7029878 -187.515625 484.52734375 C-191.0057951 480.12700609 -194.53496841 475.76003076 -198.078125 471.40234375 C-198.64096191 470.71011719 -199.20379883 470.01789063 -199.78369141 469.3046875 C-204.39168022 463.64072914 -209.01275082 457.98756427 -213.640625 452.33984375 C-215.14076781 450.50662727 -216.64076582 448.67329229 -218.140625 446.83984375 C-218.883125 445.93234375 -219.625625 445.02484375 -220.390625 444.08984375 C-227.140625 435.83984375 -227.140625 435.83984375 -229.40625 433.0703125 C-230.85359551 431.3016158 -232.30147801 429.53335832 -233.75 427.765625 C-238.79191303 421.61044285 -243.81416706 415.43953826 -248.82739258 409.26098633 C-251.29740635 406.21803683 -253.769641 403.17726389 -256.26171875 400.15234375 C-257.02613281 399.22421875 -257.79054688 398.29609375 -258.578125 397.33984375 C-259.29613281 396.48519531 -260.01414062 395.63054687 -260.75390625 394.75 C-262.640625 392.33984375 -262.640625 392.33984375 -263.99609375 389.9609375 C-265.39032033 387.56286778 -266.42667857 386.02874359 -268.640625 384.33984375 C-272.3902653 383.49202298 -276.04616193 383.13907736 -279.875 382.8125 C-287.92571171 381.80198536 -295.25211939 377.37345214 -300.640625 371.33984375 C-304.78756015 365.74571287 -308.35680437 360.27247513 -309.640625 353.33984375 C-309.77210938 352.69015625 -309.90359375 352.04046875 -310.0390625 351.37109375 C-311.92563471 339.80011754 -308.83371524 328.91813241 -302.296875 319.37890625 C-300.27150156 316.80218115 -298.52567739 314.7566585 -295.52230835 313.34222412 C-291.12809671 311.26379597 -289.05343423 309.33962443 -287.17657471 304.79406738 C-285.79878646 300.04337422 -284.84680698 295.20043857 -283.8671875 290.35546875 C-283.46211262 288.49414157 -283.05312177 286.63366297 -282.64053345 284.77398682 C-281.75307738 280.75788295 -280.88368329 276.73841935 -280.02502441 272.71606445 C-277.8954644 262.81587741 -275.53748967 252.96839323 -273.21553802 243.11198425 C-271.87452404 237.4018083 -270.55257831 231.68723372 -269.23046875 225.97265625 C-267.60623111 218.95377272 -265.98064857 211.93522998 -264.34521484 204.91894531 C-262.99219474 199.11417415 -261.64555989 193.30795754 -260.30360794 187.50061798 C-259.79788415 185.31684179 -259.28994149 183.13357816 -258.77967453 180.95085907 C-258.07530536 177.93574961 -257.37918329 174.91884898 -256.68505859 171.90136719 C-256.47635132 171.01644592 -256.26764404 170.13152466 -256.0526123 169.2197876 C-255.06449211 164.88430874 -254.16390823 160.81326545 -254.640625 156.33984375 C-256.91263232 154.21876754 -256.91263232 154.21876754 -259.640625 152.33984375 C-263.82741425 146.86093918 -267.37313617 141.18428344 -268.640625 134.33984375 C-268.77210938 133.69015625 -268.90359375 133.04046875 -269.0390625 132.37109375 C-270.93429416 120.74700624 -267.75132706 110.06860484 -261.3671875 100.4140625 C-255.80792914 93.16774597 -247.46933485 88.30695862 -238.640625 86.33984375 C-235.71766975 86.03280048 -232.828476 85.95889732 -229.890625 85.96484375 C-228.70690308 85.9661731 -228.70690308 85.9661731 -227.49926758 85.9675293 C-220.21696342 86.1143229 -213.2498396 87.38747855 -207.47412109 92.11206055 C-204.56746078 93.73853382 -204.56746078 93.73853382 -201.12084961 92.234375 C-199.7504106 91.56264104 -198.39165803 90.86674338 -197.04296875 90.15234375 C-196.30543869 89.78416031 -195.56790863 89.41597687 -194.80802917 89.03663635 C-192.38778067 87.82367538 -189.98369375 86.5816255 -187.578125 85.33984375 C-185.89109902 84.4895462 -184.20277004 83.64182919 -182.51318359 82.79663086 C-179.9581267 81.51841483 -177.40380749 80.238983 -174.85333252 78.9516449 C-167.89333538 75.44093572 -160.86005282 72.13381752 -153.765625 68.90234375 C-141.62052813 63.32937004 -129.61775723 57.48401246 -117.61907959 51.60418701 C-105.67554406 45.75356195 -93.68916866 40.02432229 -81.58007812 34.5234375 C-76.51424014 32.20835272 -71.47739743 29.83588949 -66.51171875 27.3125 C-65.62669678 26.867854 -64.7416748 26.42320801 -63.82983398 25.96508789 C-60.38193673 23.40540773 -59.77372768 20.21347982 -58.6328125 16.21484375 C-55.4058898 6.86439057 -47.26254608 0.5608677 -38.640625 -3.66015625 C-26.06025567 -8.10730935 -11.29311122 -7.09995897 0 0 Z M-55.640625 56.33984375 C-56.73600586 56.87762451 -57.83138672 57.41540527 -58.95996094 57.96948242 C-95.62120827 75.95819216 -95.62120827 75.95819216 -114.16113281 84.46557617 C-125.48363264 89.68223831 -136.67439538 95.16322321 -147.86328125 100.65942383 C-155.25799744 104.28444063 -162.66696363 107.84567926 -170.1875 111.203125 C-170.84983643 111.50088837 -171.51217285 111.79865173 -172.19458008 112.10543823 C-175.28012369 113.49176198 -178.37017263 114.85831168 -181.47851562 116.19335938 C-182.54779297 116.67095703 -183.61707031 117.14855469 -184.71875 117.640625 C-185.65106445 118.04450439 -186.58337891 118.44838379 -187.54394531 118.86450195 C-189.8666566 120.18216494 -189.8666566 120.18216494 -190.42578125 122.82226562 C-190.49667969 123.65306641 -190.56757813 124.48386719 -190.640625 125.33984375 C-191.94140543 136.12783801 -194.06491201 146.78993375 -202.640625 154.33984375 C-208.36130824 158.58009459 -213.86864412 161.89828558 -220.86328125 163.44140625 C-223.51030831 164.77946388 -223.67849207 166.58499117 -224.640625 169.33984375 C-225.15150947 171.23026219 -225.62334358 173.13148246 -226.06474304 175.0393219 C-226.32977631 176.17632538 -226.59480957 177.31332886 -226.86787415 178.48478699 C-227.15212753 179.72287613 -227.43638092 180.96096527 -227.72924805 182.23657227 C-228.03626134 183.56092606 -228.34360218 184.88520395 -228.65124512 186.20941162 C-229.48353304 189.79719934 -230.31056522 193.38617838 -231.13614631 196.97551465 C-231.65222292 199.21822491 -232.16939948 201.4606786 -232.68696022 203.7030468 C-234.49255664 211.5262415 -236.29375929 219.35043356 -238.09106445 227.17553711 C-239.76672521 234.47046957 -241.45222031 241.76308261 -243.14223641 249.05470139 C-244.59331104 255.31744721 -246.03738259 261.58178094 -247.47603256 267.8473925 C-248.33521089 271.58870215 -249.19725613 275.3292947 -250.06641197 279.06830025 C-250.8829406 282.58195044 -251.69075356 286.09749101 -252.49187469 289.61468506 C-252.92846861 291.52134054 -253.3740924 293.42592125 -253.81996155 295.33042908 C-254.07653534 296.46461273 -254.33310913 297.59879639 -254.59745789 298.76734924 C-254.8243867 299.7527044 -255.05131552 300.73805956 -255.28512096 301.75327396 C-255.64387173 304.36346625 -255.62061746 305.9074252 -254.640625 308.33984375 C-252.3722762 309.96716837 -252.3722762 309.96716837 -249.578125 311.40234375 C-241.35316403 316.39721601 -235.64344478 323.83353859 -233.1015625 333.17578125 C-232.94945312 333.88992188 -232.79734375 334.6040625 -232.640625 335.33984375 C-232.48851562 336.03335937 -232.33640625 336.726875 -232.1796875 337.44140625 C-230.5847624 347.18817074 -232.68627755 356.71394453 -237.51953125 365.21875 C-238.64755448 367.35295424 -239.30533223 368.95293243 -239.640625 371.33984375 C-237.90609541 373.73500287 -236.19683214 375.80511613 -234.203125 377.96484375 C-233.08206891 379.22283268 -231.96228006 380.48195204 -230.84375 381.7421875 C-230.29267578 382.35690918 -229.74160156 382.97163086 -229.17382812 383.60498047 C-227.1879369 385.85207331 -225.31151372 388.17414015 -223.453125 390.52734375 C-219.24413572 395.84945417 -214.94446713 401.09430625 -210.640625 406.33984375 C-209.14034183 408.17294537 -207.64034092 410.00627802 -206.140625 411.83984375 C-205.398125 412.74734375 -204.655625 413.65484375 -203.890625 414.58984375 C-197.140625 422.83984375 -197.140625 422.83984375 -194.875 425.609375 C-193.42765449 427.3780717 -191.97977199 429.14632918 -190.53125 430.9140625 C-185.48737435 437.07164063 -180.46466044 443.24614266 -175.44726562 449.42529297 C-170.85881713 455.07478656 -166.25350503 460.7102816 -161.640625 466.33984375 C-159.95280242 468.40208 -158.26548223 470.46472667 -156.578125 472.52734375 C-155.82402344 473.44902344 -155.06992188 474.37070312 -154.29296875 475.3203125 C-153.47505859 476.31998047 -153.47505859 476.31998047 -152.640625 477.33984375 C-152.12757813 477.19546875 -151.61453125 477.05109375 -151.0859375 476.90234375 C-137.63696747 473.64198738 -123.30602815 473.59369131 -111.22265625 480.77734375 C-101.95694256 487.23385446 -98.13932179 495.84375338 -94.640625 506.33984375 C-40.520625 506.33984375 13.599375 506.33984375 69.359375 506.33984375 C71.009375 502.04984375 72.659375 497.75984375 74.359375 493.33984375 C79.7040596 485.00213578 86.3004474 479.5301603 95.6875 476.13671875 C99.18991727 475.37661968 101.93109076 475.3211142 105.46044922 475.47192383 C110.74158692 475.60812222 115.47783409 475.61106173 119.5234375 471.87890625 C121.96599053 469.16933962 124.04999302 466.2240174 126.08544922 463.20117188 C128.17300826 460.15104728 130.49607587 457.29273541 132.796875 454.40234375 C133.47109497 453.5362146 133.47109497 453.5362146 134.15893555 452.65258789 C137.98423678 447.74114882 142.00915201 443.02121226 146.08300781 438.31542969 C149.64033038 434.20046021 153.07842921 430.00896476 156.453125 425.7421875 C158.46031575 423.21263358 160.49902831 420.71158437 162.546875 418.21484375 C166.33106816 413.60061167 170.09828723 408.97292618 173.859375 404.33984375 C179.78399754 397.04320336 185.71749766 389.75387204 191.69921875 382.50390625 C196.05680348 377.21099967 200.31428152 371.87606972 204.359375 366.33984375 C204.09382813 365.84097656 203.82828125 365.34210938 203.5546875 364.828125 C198.24428398 354.03288866 197.23340136 342.95902878 200.359375 331.33984375 C203.37775745 323.4220579 207.67704039 317.22364626 214.52734375 312.16796875 C215.24559326 311.6359082 215.96384277 311.10384766 216.70385742 310.55566406 C217.25017822 310.15444336 217.79649902 309.75322266 218.359375 309.33984375 C210.51968039 275.40497839 202.58883113 241.4920868 194.609375 207.58984375 C194.15376689 205.65377831 193.69815979 203.71771264 193.24255371 201.78164673 C192.15757495 197.1714752 191.07217934 192.56140201 189.98640442 187.95141792 C189.58190445 186.23395999 189.17747423 184.51648563 188.77311707 182.79899406 C188.21654494 180.4352642 187.65960273 178.07162187 187.10253906 175.70800781 C186.85800554 174.66915672 186.85800554 174.66915672 186.60853195 173.60931873 C185.87866906 170.51431773 185.14226285 167.42190715 184.359375 164.33984375 C183.62074219 164.20449219 182.88210938 164.06914062 182.12109375 163.9296875 C170.10709436 161.3803382 161.80988996 156.40580182 154.94921875 146.09375 C152.17803759 141.29354676 150.23505792 137.01798891 150.49609375 131.39453125 C150.61954035 127.99762142 150.49688427 125.55319679 149.359375 122.33984375 C145.67769616 119.15343127 141.45018201 117.37795187 137.01416016 115.48583984 C134.03177351 114.1984274 131.0933488 112.83243184 128.15234375 111.453125 C124.02387444 109.51757957 119.89070688 107.5937046 115.74766541 105.68965149 C107.73601082 102.00520158 99.7900197 98.19503684 91.859375 94.33984375 C81.2663086 89.1938479 70.61547061 84.18583885 59.9206543 79.25415039 C49.90226952 74.62184178 39.96011145 69.84018877 30.03710938 65.0078125 C27.81222081 63.92632209 25.58467995 62.85026393 23.35400391 61.78076172 C21.45170944 60.86543953 19.55704923 59.93394071 17.67333984 58.98095703 C16.88266113 58.59536621 16.09198242 58.20977539 15.27734375 57.8125 C14.60856201 57.47613525 13.93978027 57.13977051 13.25073242 56.79321289 C11.30037097 56.1418129 11.30037097 56.1418129 9.2512207 57.10717773 C7.18350294 58.35553575 7.18350294 58.35553575 5.171875 60.58984375 C-3.07032753 68.64888622 -12.15029985 72.17593041 -23.640625 72.33984375 C-37.17284413 71.37453353 -46.29223253 65.74790681 -55.640625 56.33984375 Z " fill="#326DE5" transform="translate(329.640625,39.66015625)"/>
<path d="M0 0 C6.99557502 5.10006742 13.36625961 12.03706071 15.00146484 20.76831055 C16.48573576 24.6721939 17.64378792 25.63631484 21.35855103 27.39227295 C22.05233856 27.68950256 22.7461261 27.98673218 23.4609375 28.29296875 C24.19218842 28.6306427 24.92343933 28.96831665 25.67684937 29.31622314 C28.10287093 30.43053976 30.54307447 31.50946554 32.984375 32.58984375 C34.70305274 33.37295757 36.42048225 34.15881606 38.13671875 34.94726562 C41.73155824 36.59657171 45.33127924 38.23448119 48.93457031 39.86523438 C56.63098607 43.36088878 64.25388097 47.00954472 71.87988281 50.6555481 C76.0441907 52.64457301 80.21373591 54.62255792 84.3828125 56.6015625 C86.04786534 57.39238637 87.71290442 58.18323918 89.37792969 58.97412109 C91.03840276 59.76271363 92.69888452 60.55128787 94.359375 61.33984375 C95.59161804 61.92502777 95.59161804 61.92502777 96.84875488 62.52203369 C118.64909604 72.87374107 140.4737182 83.16959643 162.359375 93.33984375 C162.359375 96.84211121 161.99427727 97.02144268 159.671875 99.40234375 C153.63788696 106.17809864 151.11188634 113.59400036 149.359375 122.33984375 C137.22254922 117.03090416 125.26322365 111.39781208 113.359375 105.58984375 C102.98736291 100.52956935 92.59147278 95.54424509 82.109375 90.71484375 C73.25672618 86.63617601 64.44715089 82.47966234 55.67901611 78.22299194 C45.67599647 73.36810673 35.66579205 68.5261987 25.60717773 63.78735352 C24.3670753 63.20133196 23.12859853 62.6118568 21.8918457 62.01879883 C20.18494113 61.2011158 18.47151847 60.39708094 16.7578125 59.59375 C15.78505371 59.13299072 14.81229492 58.67223145 13.81005859 58.19750977 C11.27244473 57.02890324 11.27244473 57.02890324 8.359375 58.33984375 C7.74707031 59.10941406 7.13476562 59.87898438 6.50390625 60.671875 C0.34093809 68.33910133 -8.87857393 71.73990788 -18.328125 73.08984375 C-30.00571665 74.0467329 -40.61978959 70.74884131 -49.578125 63.21484375 C-51.66360664 61.31895135 -53.64991032 59.33435552 -55.640625 57.33984375 C-56.73600586 57.87762451 -57.83138672 58.41540527 -58.95996094 58.96948242 C-95.62120827 76.95819216 -95.62120827 76.95819216 -114.16113281 85.46557617 C-123.89125976 89.94857777 -133.51728453 94.63296666 -143.140625 99.33984375 C-154.67841601 104.98154539 -166.24027101 110.55888258 -177.890625 115.96484375 C-179.07462891 116.51527344 -180.25863281 117.06570312 -181.47851562 117.6328125 C-189.50719036 121.33984375 -189.50719036 121.33984375 -190.640625 121.33984375 C-190.84816406 120.51742187 -191.05570313 119.695 -191.26953125 118.84765625 C-193.64098742 110.25484853 -196.83796926 102.95651966 -203.35546875 96.69140625 C-204.640625 95.33984375 -204.640625 95.33984375 -204.640625 93.33984375 C-169.45484531 76.10486417 -169.45484531 76.10486417 -153.765625 68.90234375 C-141.6222485 63.32540561 -129.61789134 57.48407818 -117.61907959 51.60418701 C-105.67554406 45.75356195 -93.68916866 40.02432229 -81.58007812 34.5234375 C-76.51424014 32.20835272 -71.47739743 29.83588949 -66.51171875 27.3125 C-65.62669678 26.867854 -64.7416748 26.42320801 -63.82983398 25.96508789 C-60.38193673 23.40540773 -59.77372768 20.21347982 -58.6328125 16.21484375 C-55.4058898 6.86439057 -47.26254608 0.5608677 -38.640625 -3.66015625 C-26.06025567 -8.10730935 -11.29311122 -7.09995897 0 0 Z " fill="#326DE6" transform="translate(329.640625,39.66015625)"/>
<path d="M0 0 C2.31 0 4.62 0 7 0 C14.87637785 16.15684098 22.6811952 32.33683252 30.19702148 48.6652832 C32.96416429 54.6628306 35.77359239 60.63535376 38.6640625 66.57421875 C39.11665939 67.50559158 39.11665939 67.50559158 39.57839966 68.45578003 C41.02814446 71.4365047 42.48482971 74.41335865 43.95166016 77.38574219 C44.46776855 78.4430957 44.98387695 79.50044922 45.515625 80.58984375 C45.97227539 81.51659912 46.42892578 82.44335449 46.89941406 83.39819336 C48 86 48 86 49 91 C38.77 91 28.54 91 18 91 C17.34 92.65 16.68 94.3 16 96 C10.39647278 107.51116332 4.41579824 118.92950843 -2.125 129.9375 C-2.47828369 130.53868652 -2.83156738 131.13987305 -3.19555664 131.75927734 C-4.94612735 134.63628366 -6.13744485 136.0916299 -9 138 C-15.45283019 137.54716981 -15.45283019 137.54716981 -18 135 C-19.38582572 123.39145989 -16.84535879 111.42879123 -15 100 C-15.89203125 100.05800781 -16.7840625 100.11601562 -17.703125 100.17578125 C-19.45882813 100.24345703 -19.45882813 100.24345703 -21.25 100.3125 C-22.41015625 100.37050781 -23.5703125 100.42851562 -24.765625 100.48828125 C-28 100 -28 100 -30.421875 97.73046875 C-32 95 -32 95 -32 91 C-36.62 91 -41.24 91 -46 91 C-44.68784093 87.06352279 -43.6363784 84.04212411 -41.7421875 80.5078125 C-41.06325439 79.22729004 -41.06325439 79.22729004 -40.37060547 77.92089844 C-39.87705566 76.99825195 -39.38350586 76.07560547 -38.875 75.125 C-33.73287442 65.40095565 -28.77130001 55.59934235 -23.875 45.75 C-16.20729644 30.3421496 -8.32730382 15.06361869 0 0 Z " fill="#316CE5" transform="translate(434,277)"/>
<path d="M0 0 C54.12 0 108.24 0 164 0 C164.33 4.62 164.66 9.24 165 14 C166.68721925 20.98990833 168.31422393 24.54989188 172 31 C112.6 31 53.2 31 -8 31 C-6.02 27.04 -4.04 23.08 -2 19 C-0.75106883 12.75534417 -0.45372433 6.35214057 0 0 Z " fill="#5478E0" transform="translate(235,546)"/>
<path d="M0 0 C10.28211848 7.50519597 17.77484239 17.47529515 19.8125 30.1875 C20.75692576 41.84211579 17.44548228 52.47135113 10.375 61.6875 C3.76006383 68.90068622 -5.24742747 73.77073881 -15.05078125 74.3359375 C-23.50406903 74.51468717 -30.44113099 74.16455823 -38 70 C-38.83917969 69.59910156 -39.67835937 69.19820313 -40.54296875 68.78515625 C-48.96295488 64.3904585 -54.68580039 57.30154075 -57.9375 48.375 C-58.33150039 46.92692064 -58.68736446 45.46779738 -59 44 C-59.15210938 43.30648437 -59.30421875 42.61296875 -59.4609375 41.8984375 C-61.34752579 30.36928681 -58.04669376 19.63196327 -51.7265625 10.07421875 C-40.40519681 -4.6828215 -16.16770238 -9.5618208 0 0 Z " fill="#326DE6" transform="translate(120,130)"/>
<path d="M0 0 C8.51887804 6.11797183 15.43086223 14.11461572 17.61328125 24.52734375 C17.76539063 25.22214844 17.9175 25.91695312 18.07421875 26.6328125 C19.96374396 38.15891626 16.65794877 48.89844471 10.33984375 58.453125 C3.60410708 67.2329436 -6.37787562 71.74929473 -17.07421875 73.27734375 C-28.63596224 74.22474003 -38.99802569 70.89883423 -48.13671875 63.83984375 C-56.3843765 56.23410276 -60.32471665 45.68436469 -60.78955078 34.68066406 C-60.979516 23.22388861 -58.21758656 14.59643887 -50.73046875 5.82421875 C-37.19021919 -7.44522582 -16.18617461 -9.98721412 0 0 Z " fill="#326DE5" transform="translate(459.38671875,519.47265625)"/>
<path d="M0 0 C9.78328633 6.15073475 16.41252211 14.6539702 19 26 C20.1084424 40.12184411 18.18764094 51.80778286 9 63 C0.30222723 70.96200951 -9.21107596 74.9827395 -21 75 C-32.03206755 74.19633945 -42.4914492 70.40746181 -50 62 C-54.14693515 56.40586912 -57.71617937 50.93263138 -59 44 C-59.13148438 43.33871094 -59.26296875 42.67742188 -59.3984375 41.99609375 C-61.05493838 31.70738271 -58.62528997 21.6949279 -53 13 C-40.80836318 -3.42410462 -18.6932514 -10.50751233 0 0 Z " fill="#326DE5" transform="translate(216,518)"/>
<path d="M0 0 C8.83677758 5.55566638 14.67355485 12.86664461 18.375 22.625 C18.684375 24.295625 18.684375 24.295625 19 26 C19.19722656 26.97453125 19.19722656 26.97453125 19.3984375 27.96875 C21.13252963 38.60451508 18.67966599 48.95104063 13 58 C12.62617187 58.62390625 12.25234375 59.2478125 11.8671875 59.890625 C7.04939849 66.61734928 -2.67378006 71.48658429 -10.48828125 73.70703125 C-23.43941829 75.21766154 -34.44685111 74.33709987 -45.25 66.4375 C-52.10531447 60.58646727 -57.3420462 52.95295053 -59 44 C-59.13148438 43.33871094 -59.26296875 42.67742187 -59.3984375 41.99609375 C-61.04869872 31.74613795 -58.67404633 21.6350171 -53 13 C-40.51575684 -3.27240091 -18.98799655 -10.67318915 0 0 Z " fill="#326DE6" transform="translate(538,130)"/>
<path d="M0 0 C8.11285728 2.34917753 15.49382453 6.01411901 23.03460693 9.74765015 C26.94260544 11.68175391 30.86004166 13.5965459 34.77734375 15.51171875 C35.95740997 16.08920616 35.95740997 16.08920616 37.16131592 16.67835999 C44.18956372 20.10983567 51.26924367 23.41925103 58.375 26.6875 C67.79935026 31.02639005 77.16776989 35.46742985 86.5 40 C99.56801688 46.3456438 112.72508318 52.48038632 125.9140625 58.57080078 C132.62564484 61.67915545 139.31345783 64.83822077 146 68 C146 71.50226746 145.63490227 71.68159893 143.3125 74.0625 C137.27851196 80.83825489 134.75251134 88.25415661 133 97 C120.86317422 91.69106041 108.90384865 86.05796833 97 80.25 C86.62798791 75.1897256 76.23209778 70.20440134 65.75 65.375 C55.07684779 60.45757444 44.47762277 55.4032547 33.91601562 50.25195312 C27.64234074 47.20220262 21.34661525 44.22791953 14.984375 41.3671875 C13.67510013 40.77480607 12.3658549 40.18235911 11.05664062 39.58984375 C8.56740751 38.46416179 6.07063564 37.35804391 3.56835938 36.26171875 C2.45783203 35.76027344 1.34730469 35.25882813 0.203125 34.7421875 C-0.78010742 34.3076123 -1.76333984 33.87303711 -2.77636719 33.42529297 C-5 32 -5 32 -5.87158203 29.95361328 C-6.03746753 27.43000921 -5.36411572 26.18768016 -4.125 24 C-1.15397775 18.68124689 -0.76282286 13.78713904 -0.4375 7.75 C-0.37272461 6.63238281 -0.37272461 6.63238281 -0.30664062 5.4921875 C-0.20103275 3.661651 -0.10005799 1.83084824 0 0 Z " fill="#6E97E9" transform="translate(346,65)"/>
<path d="M0 0 C0.03867187 1.55847656 0.03867187 1.55847656 0.078125 3.1484375 C0.38388822 11.55541228 1.24979458 18.34392025 5 26 C5.67756652 27.66226527 6.34698741 29.32793637 7 31 C-4.60370998 37.33059547 -16.38890478 43.10868025 -28.40332031 48.61791992 C-38.50939395 53.26318889 -48.51019889 58.11039666 -58.5 63 C-70.69144136 68.96363218 -82.92081725 74.81511632 -95.24926758 80.4909668 C-103.9302623 84.48881872 -112.55866173 88.588645 -121.16162109 92.75170898 C-122.49507568 93.39474976 -122.49507568 93.39474976 -123.85546875 94.05078125 C-124.63559326 94.42887939 -125.41571777 94.80697754 -126.21948242 95.1965332 C-128 96 -128 96 -129 96 C-129.20753906 95.17757812 -129.41507813 94.35515625 -129.62890625 93.5078125 C-132.00036242 84.91500478 -135.19734426 77.61667591 -141.71484375 71.3515625 C-143 70 -143 70 -143 68 C-107.81422031 50.76502042 -107.81422031 50.76502042 -92.125 43.5625 C-79.98198615 37.98572841 -67.97886025 32.14308415 -55.97946167 26.26535034 C-43.99989522 20.39997878 -31.97676526 14.6542709 -19.8515625 9.09570312 C-14.12700072 6.46985595 -8.46215022 3.76843778 -2.85668945 0.89599609 C-1 0 -1 0 0 0 Z " fill="#6E97E9" transform="translate(268,65)"/>
<path d="M0 0 C4.27019731 18.08053707 8.5384379 36.16153499 12.80437279 54.24307823 C14.78532585 62.63932105 16.76691014 71.03541393 18.75 79.43115234 C20.47918919 86.75196759 22.20717413 94.07306587 23.93373549 101.39450133 C24.84730876 105.26829779 25.76146956 109.14195341 26.67707443 113.01527023 C27.54037466 116.66740602 28.40205367 120.31992063 29.262537 123.9727211 C29.72619734 125.93915504 30.19153427 127.90519344 30.65693665 129.87121582 C32.23060672 136.55908053 33.71432636 143.25050757 35 150 C34.35643555 149.9834436 33.71287109 149.96688721 33.04980469 149.9498291 C30.40834203 149.88609974 27.76696253 149.84988626 25.125 149.8125 C24.2071875 149.78736328 23.289375 149.76222656 22.34375 149.73632812 C15.71414993 149.66629714 10.23823638 150.81828123 4 153 C1.67747757 146.45783951 -0.08750845 139.8828952 -1.64794922 133.12207031 C-1.89394867 132.07184189 -2.13994812 131.02161346 -2.3934021 129.93955994 C-3.20115817 126.48666742 -4.00293222 123.03241535 -4.8046875 119.578125 C-5.37096478 117.15255941 -5.937632 114.72708483 -6.50466919 112.30169678 C-7.84397666 106.56909643 -9.17957988 100.83564339 -10.51329529 95.10173965 C-12.45426547 86.75808103 -14.40215111 78.41603623 -16.34936714 70.07383347 C-17.74981331 64.07358637 -19.1494435 58.07315332 -20.5463562 52.07208252 C-20.80459734 50.96343212 -21.06283848 49.85478172 -21.32890511 48.71253586 C-21.83165867 46.55389326 -22.333964 44.39514621 -22.835783 42.23628616 C-24.03140019 37.1037529 -25.24324622 31.97600118 -26.48883057 26.85534668 C-26.84068515 25.40311014 -26.84068515 25.40311014 -27.1996479 23.92153549 C-27.63956182 22.11106017 -28.08323792 20.3014931 -28.53141594 18.49304581 C-28.72553629 17.69336254 -28.91965664 16.89367928 -29.11965942 16.06976318 C-29.29049608 15.37650814 -29.46133274 14.6832531 -29.63734627 13.96899033 C-30 12 -30 12 -30 8 C-28.97261719 7.92523438 -27.94523438 7.85046875 -26.88671875 7.7734375 C-18.5948883 7.0333999 -12.30333792 5.82970176 -5.13671875 1.2421875 C-3 0 -3 0 0 0 Z " fill="#648CE5" transform="translate(544,196)"/>
<path d="M0 0 C3.60489643 1.17906243 7.0065135 2.45403396 10.4375 4.0625 C14.88923684 5.8854558 19.08652114 6.39713142 23.84765625 6.62109375 C24.88315613 6.67952454 24.88315613 6.67952454 25.9395752 6.73913574 C27.62599793 6.83327184 29.31296097 6.91764356 31 7 C23.74625006 39.23311733 16.39276396 71.44305095 8.99699402 103.64384079 C8.31100041 106.63153112 7.62557813 109.619352 6.94030762 112.60720825 C5.85046146 117.35863107 4.7590719 122.10969678 3.66647148 126.86048698 C3.25854287 128.63519048 2.85110283 130.41000634 2.44417 132.18493843 C1.88384823 134.62833454 1.32168529 137.07129977 0.7590332 139.51416016 C0.59444233 140.23372926 0.42985146 140.95329836 0.26027298 141.69467258 C-0.39098236 144.51474462 -1.08398662 147.25195985 -2 150 C-2.99 149.835 -3.98 149.67 -5 149.5 C-14.5157841 148.32751946 -24.8382025 147.9460675 -34 151 C-32.65056302 142.19589943 -30.85118899 133.55159578 -28.83544922 124.87792969 C-28.51957564 123.50679071 -28.20402315 122.13557773 -27.88876343 120.76429749 C-27.04090892 117.08048795 -26.18862629 113.39771622 -25.33548117 109.7151289 C-24.44133826 105.85205208 -23.55135965 101.98801605 -22.66091919 98.12408447 C-20.97809731 90.82457895 -19.29158855 83.52593057 -17.60371888 76.2275908 C-15.68062864 67.91132877 -13.7617032 59.59410752 -11.84310889 51.27680731 C-7.90000487 34.18347463 -3.95173124 17.0913402 0 0 Z " fill="#648CE5" transform="translate(76,197)"/>
<path d="M0 0 C3.73558204 3.58830103 6.97710512 7.38423115 10.125 11.5 C13.81294208 16.26171025 17.57907073 20.9282766 21.5 25.5 C25.26407168 29.89330957 28.89203605 34.36606861 32.4375 38.9375 C36.71292845 44.44576776 41.17028797 49.76313661 45.73242188 55.03540039 C49.1879304 59.03406183 52.53405975 63.10023284 55.8125 67.24609375 C58.66072391 70.83180421 61.54820832 74.38484843 64.4375 77.9375 C65.00041748 78.62980713 65.56333496 79.32211426 66.14331055 80.03540039 C70.7511522 85.69933124 75.3722673 91.35231164 80 97 C81.68782258 99.06223625 83.37514277 101.12488292 85.0625 103.1875 C86.19365234 104.57001953 86.19365234 104.57001953 87.34765625 105.98046875 C88.16556641 106.98013672 88.16556641 106.98013672 89 108 C86.29843049 110.75698632 83.63411929 113.35248006 80.5625 115.6875 C75.11821735 120.26402581 72.08826987 126.7074689 69 133 C65.42598337 129.50924899 62.08958505 125.88893873 58.875 122.0625 C58.40126953 121.50111328 57.92753906 120.93972656 57.43945312 120.36132812 C53.56052881 115.73428895 49.83117144 110.99952899 46.12646484 106.23266602 C42.57509212 101.68164297 38.87784476 97.27576808 35.12280273 92.89233398 C31.82887274 89.02828949 28.67400783 85.07439937 25.5625 81.0625 C21.28707155 75.55423224 16.82971203 70.23686339 12.26757812 64.96459961 C8.8120696 60.96593817 5.46594025 56.89976716 2.1875 52.75390625 C-0.66072559 49.16819368 -3.54834652 45.61526625 -6.4375 42.0625 C-6.99824219 41.37236816 -7.55898437 40.68223633 -8.13671875 39.97119141 C-10.62517262 36.91065418 -13.1169542 33.85310431 -15.625 30.80859375 C-28 15.77882179 -28 15.77882179 -28 14 C-26.89205078 13.77957031 -26.89205078 13.77957031 -25.76171875 13.5546875 C-15.87141229 11.36801238 -6.71211968 7.86938169 0 0 Z " fill="#597EE1" transform="translate(89,409)"/>
<path d="M0 0 C3 1 3 1 5.375 4.125 C10.70981471 10.64234291 19.28023488 14.05297607 27 17 C22.23103537 23.5269359 17.14268595 29.76566596 12 36 C10.49915322 37.83264019 8.999145 39.66596746 7.5 41.5 C5.29771834 44.19209947 3.09511364 46.88392614 0.890625 49.57421875 C-3.58581045 55.03906421 -8.047064 60.51600645 -12.5 66 C-17.65223637 72.34521382 -22.81947976 78.6778466 -28 85 C-29.50014281 86.83321648 -31.00014082 88.66655146 -32.5 90.5 C-35.5 94.16666667 -38.5 97.83333333 -41.5 101.5 C-42.23863281 102.40363281 -42.97726562 103.30726563 -43.73828125 104.23828125 C-45.27395979 106.11345349 -46.81314768 107.98575614 -48.35546875 109.85546875 C-52.7082524 115.14151254 -56.95984099 120.47052748 -61 126 C-62.0209375 124.948125 -62.0209375 124.948125 -63.0625 123.875 C-64.03673336 122.91165193 -65.01633007 121.95371044 -66 121 C-66.50789063 120.50757813 -67.01578125 120.01515625 -67.5390625 119.5078125 C-73.06115365 114.45680021 -79.62577493 110.57655846 -87 109 C-85.2997962 105.07128047 -82.70953347 101.88401576 -80.0625 98.5625 C-79.57740967 97.94922852 -79.09231934 97.33595703 -78.5925293 96.70410156 C-74.79391031 91.9299546 -70.88194067 87.25932386 -66.9206543 82.61987305 C-63.51564271 78.62894802 -60.21690716 74.56673225 -56.95703125 70.45703125 C-53.35295939 65.9321586 -49.66961105 61.47174634 -46 57 C-40.81844686 50.67869672 -35.65223281 44.34520944 -30.5 38 C-24.57528006 30.70343747 -18.64187829 23.41402945 -12.66015625 16.1640625 C-8.30257152 10.87115592 -4.04509348 5.53622597 0 0 Z " fill="#597EE1" transform="translate(533,406)"/>
<path d="M0 0 C43.68421053 0 43.68421053 0 57.6875 12.375 C67.30665208 23.29403749 71.42638717 33.60099764 71.2734375 48.23828125 C70.33482379 61.15092411 64.53637429 72.35273971 54.875 80.875 C38.34040069 93.58341104 20.6473089 91 0 91 C0 60.97 0 30.94 0 0 Z M19 19 C19 36.49 19 53.98 19 72 C30.78198812 72 37.3098036 70.8310399 45.859375 62.5234375 C50.84413894 56.64723767 52.75055668 50.10220062 52.37890625 42.44140625 C51.16735915 34.6350461 46.86890798 28.16883943 41 23 C33.84478907 18.02915874 28.09338937 19 19 19 Z " fill="#326DE6" transform="translate(314,277)"/>
<path d="M0 0 C6.27 0 12.54 0 19 0 C19.33 8.58 19.66 17.16 20 26 C25.32870412 20.73765857 25.32870412 20.73765857 30.3125 15.25 C31.2096875 14.26773437 31.2096875 14.26773437 32.125 13.265625 C34.1148868 10.98091098 34.1148868 10.98091098 35.75 8.046875 C38.1267696 4.5357381 40.11136392 1.76032886 44 0 C52.56369193 -1.38934836 61.38992078 -0.67457886 70 0 C66.02391851 5.53035964 61.76652907 10.57931686 57.0625 15.5 C55.82733708 16.80915289 54.59295324 18.1190413 53.359375 19.4296875 C52.77736328 20.04682617 52.19535156 20.66396484 51.59570312 21.29980469 C47.19744791 25.98607294 43.22489773 30.42539802 40 36 C45.04263209 45.09497985 50.20553109 54.11155299 55.5 63.0625 C56.32733643 64.46121338 56.32733643 64.46121338 57.17138672 65.88818359 C59.70462948 70.16064531 62.25063288 74.42441064 64.83203125 78.66796875 C65.25484375 79.36462646 65.67765625 80.06128418 66.11328125 80.77905273 C66.89171243 82.05842467 67.67404435 83.33543437 68.4609375 84.60961914 C71 88.77964313 71 88.77964313 71 91 C63.41 91 55.82 91 48 91 C46.91460937 89.02257812 45.82921875 87.04515625 44.7109375 85.0078125 C43.6389696 83.05801446 42.56634133 81.1085811 41.49365234 79.15917969 C40.75793789 77.82134189 40.02289257 76.48313586 39.28857422 75.14453125 C35.78075783 68.75102144 32.26169231 62.36257079 28.6015625 56.0546875 C28.14346191 55.26304199 27.68536133 54.47139648 27.21337891 53.65576172 C26.81296387 53.10936035 26.41254883 52.56295898 26 52 C23.84061889 51.80453675 23.84061889 51.80453675 21.91308594 53.51074219 C19.34487505 56.85243159 19.39751027 59.77608603 19.390625 63.828125 C19.37408875 64.57713074 19.35755249 65.32613647 19.34051514 66.09783936 C19.2920649 68.48197654 19.27067228 70.86547611 19.25 73.25 C19.2218376 74.86982369 19.19190978 76.48961772 19.16015625 78.109375 C19.08299145 82.07320898 19.04245144 86.03503515 19 90 C12.73 90 6.46 90 0 90 C0 60.3 0 30.6 0 0 Z " fill="#326DE6" transform="translate(147,277)"/>
<path d="M0 0 C1.28761352 3.86284056 0.60396222 7.01924127 0.00390625 10.94921875 C-0.10848892 11.72183548 -0.22088409 12.49445221 -0.33668518 13.29048157 C-0.6970637 15.75717033 -1.06715446 18.22228997 -1.4375 20.6875 C-1.68358386 22.35993183 -1.92903433 24.03245698 -2.17382812 25.70507812 C-2.77402527 29.80472978 -3.38733137 33.90211607 -4 38 C1.94 38 7.88 38 14 38 C7.79193747 51.57356044 0.89808922 64.49818029 -6.53759766 77.43310547 C-9.46200721 82.56620098 -12.24246246 87.77571979 -15 93 C-15.33 93 -15.66 93 -16 93 C-15.53100511 84.57426426 -14.58348381 76.24085179 -13.5 67.875 C-13.36940186 66.855271 -13.23880371 65.83554199 -13.10424805 64.78491211 C-12.97703369 63.82206299 -12.84981934 62.85921387 -12.71875 61.8671875 C-12.60466797 61.00206543 -12.49058594 60.13694336 -12.37304688 59.24560547 C-12 57 -12 57 -11 54 C-17.27 54 -23.54 54 -30 54 C-29.13761719 52.4221875 -28.27523438 50.844375 -27.38671875 49.21875 C-25.23086829 45.26709442 -23.08693618 41.30944657 -20.95703125 37.34375 C-14.19167005 24.76139293 -7.24516607 12.3124265 0 0 Z " fill="#F9FAFE" transform="translate(437,317)"/>
<path d="M0 0 C20.13 0 40.26 0 61 0 C61 6.27 61 12.54 61 19 C40.87 19 20.74 19 0 19 C0 12.73 0 6.46 0 0 Z " fill="#326DE6" transform="translate(235,349)"/>
<path d="M0 0 C20.13 0 40.26 0 61 0 C61 6.27 61 12.54 61 19 C40.87 19 20.74 19 0 19 C0 12.73 0 6.46 0 0 Z " fill="#326DE6" transform="translate(235,277)"/>
<path d="M0 0 C16.83 0 33.66 0 51 0 C51 6.27 51 12.54 51 19 C34.17 19 17.34 19 0 19 C0 12.73 0 6.46 0 0 Z " fill="#326DE6" transform="translate(235,311)"/>
<path d="M0 0 C0.5775 0.804375 1.155 1.60875 1.75 2.4375 C4.0379463 5.04321662 4.71273266 5.56169769 8 6 C8.66 6.33 9.32 6.66 10 7 C11.54023996 7.06950541 13.08334988 7.08452357 14.625 7.0625 C15.44226563 7.05347656 16.25953125 7.04445313 17.1015625 7.03515625 C17.72804688 7.02355469 18.35453125 7.01195312 19 7 C19.3690205 17.55808656 19.3690205 17.55808656 17 22 C16.67 22 16.34 22 16 22 C16.33 17.71 16.66 13.42 17 9 C14.9375 9.103125 12.875 9.20625 10.75 9.3125 C7.234375 9.48828125 7.234375 9.48828125 4 9 C1.578125 6.73046875 1.578125 6.73046875 0 4 C0 2.68 0 1.36 0 0 Z " fill="#124AE3" transform="translate(402,368)"/>
<path d="M0 0 C0.33 0 0.66 0 1 0 C1.66 1.98 2.32 3.96 3 6 C5.97 6.495 5.97 6.495 9 7 C9 6.34 9 5.68 9 5 C9.99 5 10.98 5 12 5 C12.33 4.01 12.66 3.02 13 2 C13.33 2.66 13.66 3.32 14 4 C11.9375 6.5625 11.9375 6.5625 9 9 C4.97965076 8.93185849 2.8823175 8.8823175 0 6 C-0.125 2.875 -0.125 2.875 0 0 Z " fill="#053EE2" transform="translate(416,406)"/>
</svg>
